<svg id="visual" viewBox="0 0 960 540" width="960" height="540" xmlns="http://www.w3.org/2000/svg" xmlns:xlink="http://www.w3.org/1999/xlink" version="1.1"><rect x="0" y="0" width="960" height="540" fill="#212121"></rect><path d="M0 442L22.8 441.5C45.7 441 91.3 440 137 437.7C182.7 435.3 228.3 431.7 274 426.3C319.7 421 365.3 414 411.2 419.7C457 425.3 503 443.7 548.8 447.2C594.7 450.7 640.3 439.3 686 432C731.7 424.7 777.3 421.3 823 421.8C868.7 422.3 914.3 426.7 937.2 428.8L960 431L960 541L937.2 541C914.3 541 868.7 541 823 541C777.3 541 731.7 541 686 541C640.3 541 594.7 541 548.8 541C503 541 457 541 411.2 541C365.3 541 319.7 541 274 541C228.3 541 182.7 541 137 541C91.3 541 45.7 541 22.8 541L0 541Z" fill="#9e9e9e" stroke-linecap="round" stroke-linejoin="miter"></path></svg>